<?xml version="1.0" standalone="no"?><!DOCTYPE svg PUBLIC "-//W3C//DTD SVG 1.1//EN" "http://www.w3.org/Graphics/SVG/1.1/DTD/svg11.dtd"><svg t="1537951973904" class="icon" style="" viewBox="0 0 1024 1024" version="1.1" xmlns="http://www.w3.org/2000/svg" p-id="639" xmlns:xlink="http://www.w3.org/1999/xlink" width="200" height="200"><defs><style type="text/css"></style></defs><path d="M446.4 247.424c19.392 13.76 41.728 16.384 63.296 16.448 21.504-0.064 43.84-2.688 63.232-16.448 19.584-14.016 30.4-39.104 29.952-68.992-0.064-30.464-9.28-58.368-25.344-79.616-15.872-21.248-40-36.416-67.84-36.416s-52.16 15.168-68.032 36.416c-16.128 21.248-25.216 49.28-25.28 79.616-0.384 29.888 10.368 54.976 30.016 68.992z m31.296-121.472c9.664-12.544 20.8-18.368 32-18.368 11.072 0 22.272 5.824 31.936 18.368 9.472 12.544 16.192 31.296 16.128 52.48-0.448 21.376-5.44 27.712-11.456 32.448-6.272 4.8-19.2 8-36.608 7.872-17.536 0.128-30.528-3.072-36.672-7.872-5.952-4.736-11.008-10.944-11.456-32.448-0.064-21.12 6.592-39.872 16.128-52.48zM723.712 909.504s-84.416-16.768-110.464-86.464l-19.392 26.624s25.984 63.04 116.8 89.664l13.056-29.824zM419.52 823.04c-25.92 69.696-110.4 86.464-110.4 86.464l12.992 29.888c90.816-26.624 116.864-89.664 116.864-89.664l-19.456-26.688z" fill="#d81e06" p-id="640"></path><path d="M928.128 718.272c-0.512-85.248-40.96-152.576-52.864-170.816-6.656-58.304-35.52-106.624-65.408-142.016a402.208 402.208 0 0 0-66.304-62.336l-0.576-1.664-3.968-1.536c-1.856-1.344-4.288-3.2-5.76-4.16l-1.024 1.536-86.592-33.6V266.24c11.328-20.608 18.24-44.544 18.176-71.936-0.128-46.464-17.28-92.928-44.416-129.472C592.32 28.48 553.536 0.32 507.008 0a113.632 113.632 0 0 0-62.656 19.392c-27.264 17.92-47.936 45.12-62.272 75.712a237.536 237.536 0 0 0-22.464 99.2 148.64 148.64 0 0 0 18.048 71.936v37.44l-85.952 33.408-0.96-1.344c-1.344 0.832-3.584 2.56-5.248 3.712l-4.736 1.856-0.64 2.048a399.36 399.36 0 0 0-65.92 62.016C184.32 440.768 155.52 488.96 148.8 547.264c-11.84 18.112-52.48 85.568-52.928 171.008 0 24.832 4.416 51.264 13.696 77.76-1.6 8.256-3.84 22.72-3.84 42.304-0.064 35.264 7.552 85.888 41.536 134.656l11.712 16.896 90.432-34.432c2.496 9.664 5.376 19.2 9.344 28.608l4.032 9.92 10.368 3.136c1.536 0.576 87.424 25.92 222.976 26.88l29.12-0.128a1133.44 1133.44 0 0 0 223.296-26.304l18.368-4.032-0.832-21.888c1.728-5.888 2.688-11.968 4.032-17.792l94.784 36.032 11.84-16.896a233.856 233.856 0 0 0 41.472-134.528c0-19.648-2.176-34.112-3.904-42.432a233.216 233.216 0 0 0 13.824-77.76z m-623.296 28.16l-1.28-1.984-1.152 0.768s-0.064-0.128-0.128-0.128l1.28-0.832c-5.696-8.512-9.536-27.2-9.344-48.768 0-25.664 4.416-55.104 9.152-77.632 1.216-5.824 2.368-11.136 3.456-15.872 23.36 11.648 59.264 25.344 100.736 25.536 26.624 0 55.552-6.144 83.392-22.208v144.128a143.36 143.36 0 0 1-82.432 25.984c-31.232 0.128-60.416-9.024-81.728-18.24a215.04 215.04 0 0 1-21.952-10.752z m101.504-397.312a289.472 289.472 0 0 0 84.608 23.872v195.584c-27.84 21.056-56.192 28.736-83.392 28.8-30.016 0.064-58.176-8.96-78.656-18.176a204.16 204.16 0 0 1-19.584-9.856c-4.736-13.056-7.744-30.464-7.616-50.624 0-33.408 6.272-71.36 12.736-100.48 3.264-14.528 6.464-26.944 8.832-35.712l0.448-1.408 82.624-32z m305.856 256.704c5.184 25.216 11.84 64.512 11.712 97.984 0.32 21.76-3.52 40.64-7.872 47.232l1.28 0.768a141.792 141.792 0 0 1-78.976 23.616c-31.168 0.128-60.416-9.024-81.728-18.24a227.52 227.52 0 0 1-20.352-9.92v-141.952c23.296 10.816 56.32 22.016 93.824 22.208a166.4 166.4 0 0 0 82.112-21.696zM265.408 768.768z m270.72 12.16c24.128 11.456 60.288 24.512 102.144 24.704 26.304 0 54.72-5.888 82.432-20.608 5.248 22.208 12.416 59.84 12.416 100.16 0 24-3.072 48.64-9.6 71.168a1088.128 1088.128 0 0 1-187.392 21.888v-197.312z m164.096-398.72l0.512 1.984c3.264 11.776 16.512 66.048 16.384 116.736 0.128 23.744-3.008 46.528-9.6 62.72l-3.328 8 0.832 3.008a134.304 134.304 0 0 1-75.072 22.656c-29.952 0.128-58.176-8.896-78.72-18.112a177.056 177.056 0 0 1-15.104-7.36v-198.08a194.944 194.944 0 0 0 81.28-24.576l82.624 32 0.192 1.024z m-257.92-287.04c9.152-13.568 19.84-24.576 30.848-31.744 11.072-7.296 22.08-10.752 33.792-10.752 22.976-0.448 49.408 15.68 70.208 43.648 20.672 27.52 34.176 65.024 33.984 97.984 0 23.104-5.376 40-13.824 52.544l-4.288 6.656V311.36a154.336 154.336 0 0 1-73.6 18.24c-28.608 0.064-55.488-6.72-74.88-13.696a224.32 224.32 0 0 1-14.144-5.44V253.632l-4.416-6.656c-8.32-12.608-13.696-29.504-13.696-52.672-0.128-33.984 11.456-71.872 30.016-99.136zM180.48 925.312a185.6 185.6 0 0 1-22.08-86.912c0-11.392 1.024-20.928 1.984-27.264l1.28-7.104 0.384-1.664v-0.192l2.304-8.32-3.264-8.064a183.488 183.488 0 0 1-12.48-67.456c0-39.168 11.648-76.16 23.424-103.04 5.888-13.44 11.904-24.384 16.256-31.808l5.184-8.256 1.344-2.048 0.256-0.448 4.288-6.016 0.512-7.232c3.2-46.208 27.328-88 54.592-120.064 0.896-1.152 1.792-1.984 2.752-3.072-4.544 25.6-8.064 54.336-8.192 82.432 0.128 26.496 3.136 52.48 13.184 76.032-5.824 25.088-12.992 63.616-13.12 100.736 0.192 22.336 2.752 44.16 11.968 63.808-6.208 19.456-19.904 68.928-19.968 126.08 0 5.504 0.32 11.072 0.576 16.704l-61.184 23.168z m119.552 32.256l-2.24-0.64a221.696 221.696 0 0 1-11.584-71.552 384.224 384.224 0 0 1 16-106.368c24.064 11.968 62.144 26.432 106.304 26.624 26.304 0 54.72-5.888 82.432-20.608v193.664a974.592 974.592 0 0 1-148.928-12.736 822.144 822.144 0 0 1-41.984-8.384z m562.88-171.84l-3.264 8.064 2.304 8.384c0.192 0.64 3.776 14.912 3.648 36.288 0 23.616-4.992 55.04-22.08 86.784l-66.304-25.28c0.256-4.928 0.96-9.984 0.96-14.848 0-47.168-8.32-89.152-14.208-113.152 10.048-20.992 12.352-44.032 12.544-68.224-0.128-53.632-13.248-112-17.6-130.432a236.32 236.32 0 0 0 10.88-72.512c0-23.68-2.368-46.72-5.376-67.2 1.728 1.984 3.52 3.648 5.248 5.696 27.2 32.064 51.392 73.856 54.592 120l0.512 7.232 4.224 6.016 0.32 0.448c4.48 5.952 46.592 71.744 46.208 145.152 0 22.144-3.712 44.8-12.608 67.584z" fill="#d81e06" p-id="641"></path></svg>